# xmcd CD database file
#
# Track frame offsets:
#        150
#        10335
#        23555
#        36957
#        50182
#        61750
#        73880
#        98112
#        109437
#        120712
#        132535
#        146170
#        158112
#        171207
#        183760
#        196657
#        208685
#        220667
#
# Disc length: 3084 seconds
#
# Revision: 0
# Processed by: cddbd v1.5.2PL0 Copyright (c) Steve Scherf et al.
# Submitted via: CUERipper 2.1.4
#
DISCID=0b0c0a12
DTITLE=Various Artist - Gotham Post-War Country Blues Anthology
DYEAR=1991
DGENRE=Blues
TTITLE0=Ralph Willis - So Many Days
TTITLE1=Ralph Willis - That Gal's No Good
TTITLE2=Ralph Willis - New Goin' Down Slow
TTITLE3=Ralph Willis - Goin' To Chattanooga
TTITLE4=Ralph Willis - Steel Mill Blues
TTITLE5=Ralph Willis - I Will Never Love Again
TTITLE6=Doug Quattlebaum - Don't Be Funny Baby
TTITLE7=Doug Quattlebaum - Foolin' Me
TTITLE8=Doug Quattlebaum - Lizzie Lou
TTITLE9=Wright Holmes - Good Road Blues
TTITLE10=Wright Holmes - Alley Special
TTITLE11=Wright Holmes - Drove From Home Blues
TTITLE12=Sonny Boy Johnson - Quinsella
TTITLE13=David Pete McKinley - Shreveport Blues
TTITLE14=David Pete McKinley - Ardelle
TTITLE15=Stick "Horse" Hammond - Little Girl
TTITLE16=Stick "Horse" Hammond - Truck 'Em On Down
TTITLE17=Muddy Waters - Mean Red Spider
EXTD=
EXTT0=
EXTT1=
EXTT2=
EXTT3=
EXTT4=
EXTT5=
EXTT6=
EXTT7=
EXTT8=
EXTT9=
EXTT10=
EXTT11=
EXTT12=
EXTT13=
EXTT14=
EXTT15=
EXTT16=
EXTT17=
PLAYORDER=
